<?xml version="1.0" encoding="utf-8"?>
<!-- Generator: Adobe Illustrator 25.2.3, SVG Export Plug-In . SVG Version: 6.00 Build 0)  -->
<svg version="1.1" id="Layer_1" xmlns="http://www.w3.org/2000/svg" xmlns:xlink="http://www.w3.org/1999/xlink" x="0px" y="0px"
	 viewBox="0 0 65 19" style="enable-background:new 0 0 65 19;" xml:space="preserve">
<style type="text/css">
	.st0{fill:#FFFFFF;}
</style>
<path class="st0" d="M16.2,1.7v9.2c0,4.5-2.9,6.6-7.2,6.6s-7.2-2.1-7.2-6.6V1.7h5.7v8.7c0,1.2,0,2.3,1.6,2.3s1.6-1.1,1.6-2.3V1.7
	H16.2z"/>
<path class="st0" d="M18.3,1.7h5.5l5.1,8.6H29c-0.3-1.3-0.4-2.7-0.5-4V1.7H34v15.6h-5.4l-5-8.2h-0.2c0.2,1,0.3,2.1,0.4,3.1v5.1h-5.4
	V1.7H18.3z"/>
<polygon class="st0" points="35.9,1.7 46.5,1.7 46.5,6 41.7,6 41.7,7.4 46,7.4 46,11.5 41.7,11.5 41.7,13 46.6,13 46.6,17.3 
	35.9,17.3 "/>
<path class="st0" d="M48.6,17.3h7.2c4.6,0,7.9-2.9,7.9-7.6c0-5.7-4-8-9.3-8h-5.8C48.6,1.7,48.6,17.3,48.6,17.3z M54.3,6.6h0.3
	c2.1,0,3.3,0.9,3.3,3.1s-1.5,2.9-3.3,2.9h-0.3V6.6z"/>
</svg>
